<svg width="112" height="43" viewBox="0 0 112 43" fill="none" xmlns="http://www.w3.org/2000/svg">
<path fill-rule="evenodd" clip-rule="evenodd" d="M108.931 5.69407C110.51 5.66424 111.819 4.44339 111.985 2.84726C112.065 2.11431 111.831 1.38165 111.342 0.836567C110.853 0.291487 110.157 -0.0131834 109.432 0.000437965C107.849 0.0257711 106.535 1.24776 106.369 2.84726C106.288 3.5818 106.524 4.31599 107.014 4.86139C107.505 5.4068 108.204 5.71033 108.931 5.69407ZM111.14 1.01922C111.582 1.51614 111.791 2.18235 111.714 2.84726C111.571 4.29782 110.387 5.41264 108.953 5.44633C108.295 5.45344 107.665 5.17248 107.225 4.67505C106.785 4.17762 106.576 3.51178 106.653 2.84726C106.796 1.39918 107.978 0.286363 109.409 0.252688C110.068 0.242949 110.699 0.522306 111.14 1.01922ZM109.87 3.20761L110.358 4.3022H109.582L109.206 3.4013H108.86L108.776 4.3022H108.067L108.324 1.39232H109.383C110.026 1.39232 110.447 1.80222 110.398 2.34276C110.378 2.70456 110.177 3.03085 109.866 3.20761H109.87ZM109.223 2.75717H108.913L108.962 2.06798H109.272C109.542 2.06798 109.667 2.20312 109.667 2.41032C109.667 2.61753 109.494 2.75717 109.223 2.75717Z" fill="white"/>
<path fill-rule="evenodd" clip-rule="evenodd" d="M20.5956 32.4955L24.1767 11.8155L16.6511 11.838L16.2433 14.1533C15.1841 12.2525 13.3137 11.2615 10.7077 11.2615C4.76874 11.2615 0.886271 16.4461 0.12839 22.0722C-0.642786 27.8604 2.08292 33.0721 7.68947 33.0901C9.82985 33.1135 11.8869 32.2479 13.3846 30.6937L13.0611 32.4955H20.5956ZM14.8605 22.1533L14.8162 22.2794C14.4129 24.5136 12.8262 26.0406 10.588 26.0406C8.26563 26.0406 7.25069 24.3469 7.61412 22.1533C7.97755 19.8785 9.61297 18.2659 11.9309 18.2659C14.2489 18.2659 15.2239 19.9641 14.8605 22.1533Z" fill="white"/>
<path d="M25.1256 19.0949L27.9266 2.30225H35.4567L32.6157 19.2165L30.3332 32.4956H22.8076L25.1256 19.0949Z" fill="white"/>
<path d="M43.5271 11.8156L42.2639 19.0948L38.1155 43H30.5811L34.7295 19.0948L35.9882 11.8156C37.0563 5.73462 41.1648 2.46889 48.2073 2.8833L47.0284 9.74809C45.034 9.58143 43.7708 10.4913 43.5271 11.8156Z" fill="white"/>
<path d="M54.1065 19.0948C55.0957 16.164 57.0028 13.6435 59.5357 11.9192L47.5692 11.8291C46.4785 11.813 45.5385 12.6059 45.3532 13.6984L44.418 19.1038L42.1045 32.4956H49.639L51.6689 20.784C51.8365 19.8202 52.6604 19.1177 53.6234 19.1173L54.1065 19.0948Z" fill="white"/>
<path fill-rule="evenodd" clip-rule="evenodd" d="M75.4555 24.7749C75.812 23.906 76.0722 22.9996 76.2311 22.0722C77.2327 16.2389 73.6118 11.2615 67.1809 11.2615C61.1661 11.2536 56.0483 15.7141 55.139 21.7569C54.1196 27.8739 57.5367 33.0856 65.1067 33.0856C68.7277 33.0856 71.5376 32.0541 73.8954 29.9865L69.5431 25.5181C68.515 26.4433 67.1693 26.9192 65.7981 26.8424C64.2956 26.8424 62.7089 26.4685 62.1771 24.7749H75.4555ZM66.9105 17.338C68.4174 17.338 69.5166 17.9596 69.6362 19.82H62.9217C63.6552 18.2672 65.2163 17.2959 66.9105 17.338Z" fill="white"/>
<path fill-rule="evenodd" clip-rule="evenodd" d="M98.3606 32.4956L103.364 3.54541L95.8343 3.56793L94.0039 14.1534C92.949 12.2525 91.0743 11.2615 88.4727 11.2615C82.5293 11.2615 78.6646 16.4462 77.8934 22.0722C77.1178 27.8605 79.8435 33.0721 85.4545 33.0902C87.596 33.1127 89.6541 32.2474 91.1541 30.6938L90.8261 32.4956H98.3606ZM92.661 21.9912L92.5812 22.4011C92.1336 24.5542 90.5646 26.0407 88.3486 26.0407C86.0306 26.0407 85.0113 24.347 85.3791 22.1533C85.7425 19.8786 87.4134 18.266 89.6915 18.266C91.9696 18.266 92.949 19.8786 92.661 21.9912Z" fill="white"/>
</svg>
